<svg id="40c47914-9898-4d85-9fed-50802636049d" data-name="Capa 1" xmlns="http://www.w3.org/2000/svg" xmlns:xlink="http://www.w3.org/1999/xlink" viewBox="0 0 540.67 440.51"><defs><linearGradient id="9688202b-e9ae-49dc-b0f5-6091e201012e" x1="289.51" y1="455.83" x2="289.51" y2="15.32" gradientUnits="userSpaceOnUse"><stop offset="0" stop-color="#6a0bff"/><stop offset="1"/></linearGradient><linearGradient id="390dedf9-11d2-4bff-ae3f-6c1a3b11d32a" x1="446.58" y1="162.46" x2="446.58" y2="152.39" xlink:href="#9688202b-e9ae-49dc-b0f5-6091e201012e"/><linearGradient id="562e1cf4-41d1-4bd2-89d1-8d5f6f8eb651" x1="412.08" y1="104.41" x2="412.08" y2="90.69" xlink:href="#9688202b-e9ae-49dc-b0f5-6091e201012e"/><linearGradient id="57d67272-367a-4b83-8b03-53ce2f8e3f2d" x1="246.06" y1="274.3" x2="246.06" y2="270.31" xlink:href="#9688202b-e9ae-49dc-b0f5-6091e201012e"/><linearGradient id="af50416f-a7ef-47aa-98a2-f4a812be2a40" x1="520.91" y1="275.41" x2="520.91" y2="272.3" xlink:href="#9688202b-e9ae-49dc-b0f5-6091e201012e"/><linearGradient id="5b76f6ed-66b1-4b54-8903-3d96ce5d9e92" x1="126.5" y1="384.2" x2="126.5" y2="379.76" xlink:href="#9688202b-e9ae-49dc-b0f5-6091e201012e"/><linearGradient id="6c2af4d3-e5f4-4190-9124-07d200a434d9" x1="223.18" y1="272.76" x2="223.18" y2="270.63" xlink:href="#9688202b-e9ae-49dc-b0f5-6091e201012e"/><linearGradient id="ee38ac54-f3e5-4132-ba73-c0ba0b1fa052" x1="141.05" y1="372.74" x2="141.05" y2="370.67" xlink:href="#9688202b-e9ae-49dc-b0f5-6091e201012e"/></defs><title>logo</title><path d="M124.49,384.2c-17.26,31.71,6.08,49.94,22.66,71.63-7.37-3.77-15.26-6.78-22-11.45-16.71-11.53-34.12-22.47-49-36.08-30-27.35-47.54-62.12-53.76-102.25-4.3-27.73-5.82-55.38,6-82.07a72.33,72.33,0,0,1,9-14.69c7.83-10.19,14.53-20.95,18.45-33.41,4.42,3,2.77,7.9,4.76,11.4,1.11,2-.79,6.22,3.17,5.78,3.3-.37,2.21-4.39,2.3-6.47,1-23.1-4.1-44.39-20.76-62.59,9.47-1.63,13.29,5.21,16.66,10.5a195.64,195.64,0,0,1,15,29c6.26,14.85,15.64,26.89,26.19,39.16,22.94,26.68,52.92,42.4,82.41,59.25,11,6.26,23.15,9,35.73,9.91a2.66,2.66,0,0,0,3.72.38c4.41,1.27,8.84,2.47,13.49,1.42,4.51,1.11,8.95.78,15,0-5.88-2.84-10.34-3.6-15-3.16-14.06-5.22-28.81-8.65-41.21-17.95-10.83-8.12-19.64-18.07-27.87-28.58-1.79-2.29-3.34-4.63-5.84-6.09-4.74-2.75-9.24-4.62-9.52,3.84-0.05,1.56.12,3.45-1.63,4.11-2.7,1-2.58-1.89-3.82-3-14.35-12.6-17.66-28.81-16.7-47,0.6-11.39-4.88-14.05-14.74-7.92-3.51,2.18-3.87-.14-4.06-2.45-0.65-8.05,2.35-14.95,6.59-21.64,2.06-3.24,8.62-6.15,3.64-10.93-4.33-4.16-9.6-1.43-14.27,1.05-1.64.87-1.76,3.65-4.89,3.19-1-10,5.66-14.89,13.2-18.32,4.66-2.12,9.55-3.84,8.56-9.53-0.89-5.11-6.6-6.53-10.74-6.34-8,.36-5.66-3-2.83-6.36,8.38-9.81,19.29-15.34,32.13-18-7.32-17.52-16-34.75-11.4-55,4.15,12.58,10.58,23.85,17.14,35.18,4.5,7.77,9.63,12.87,18.6,14.77,9.71,2.05,17.36,6.89,21.7,17s14.37,16,23.55,18.5c13.72,3.8,31.57,22.09,32.74,39.95-6.77-9.85-16.57-2.59-24.63-6.2-7.39-3.3-16-3.91-24-5.86A16.53,16.53,0,0,1,193,134.6c-8.94-6-19.05-4.65-26.8,3-5.68,5.59-5.86,11.52-3.45,18.42,7.21,20.64,23.45,32,41.82,41.36,23.06,11.75,46.66,21.76,72.8,24.1,4.55,0.41,5.7,2.15,3.35,6.13a38.73,38.73,0,0,0-2.6,5.11c-0.67,1.65-2.47,3.08-1,5.86,11.67-4.26,17.4-13.93,21.56-24.37,11.92-29.91,6.72-57.66-9.47-85-15.37-26-37-44.8-60.56-62.74-16-12.18-27.26-29.1-33.33-51.09,13.75,10.22,28.1,12.38,42.66,13.74a324.11,324.11,0,0,0,82.79-3.18c29.59-4.84,59.43-3.22,89,1.05,34.65,5,68.28,13.82,100.35,28.12,0.88,0.39,2,.42,2.67,1,3.62,3.54,11.94,5.78,10.61,9.93-1.69,5.3-8.13-.19-12.47-0.42-23.67-1.23-46.33.36-67.29,13.54-12.22,7.69-16.63,13.59-15.12,28l-10.28-4.82c-0.86-4-4.29-6-6.67-8.89-1.37-1.64-3.46-4-5.33-2-1.3,1.42.23,4.17,1.8,5.94,2,2.3,4,4.66,6,7,19.58,27.1,49.75,33.09,79.52,39.78,13.68,3.07,27.78,4.37,40.87,9.89a31.38,31.38,0,0,1,14.45,12.1c1.21,1.87,1.87,4.63.28,6.3-2.22,2.34-3.75-.55-5.51-1.62-13.26-8.08-28.3-8.85-43.12-10a135.74,135.74,0,0,0-52.77,6.19c-2.37.77-5,.68-7.77,1l1.54-5.64,16-10c-11-.86-16.27,4.87-21.94,9.82-15.22,12.5-13.23,29.11,5,40.25A246,246,0,0,0,463,215a132.38,132.38,0,0,1,39.53,28.45l2.52,3.65c-1.05,2.58,1.42,3.9,2.1,5.86-3.63,4.17-5.43-.21-7.74-1.74-4.25-2.8-7.41-6.86-12-9.42-16.53-9.15-34.68-12.37-52.81-16.45-15.13-3.4-27.83-.28-40.3,7.66-4.89,3.11-7.36,7.28-6,12.74,1.58,6.19-1.34,7.34-6.39,7.21-6.49-.17-12.6.68-17.13,7.34,9.46,3.55,18.2,1.37,26.8-.4a290,290,0,0,1,47.12-6c24.93-1,48.21,5.53,71.17,14.05a15.53,15.53,0,0,0,7.85,4.54c1.34,2.68,3.84,2.86,6.38,2.95,1.63,3.51,4.1,5.94,7.34,8.36,35,26.07,35.4,64.88,13.47,95.39-17.42,24.24-41.17,27.49-68.56,22-20-4-29.46-17.33-35.37-34.66-2.58-7.58-.73-14.93,3.66-21.85,13.52-21.35,34-24.47,56.49-21.48,4.79,0.64,10.42-.19,14.83,4.23C504.42,333,491.72,337.24,486,351c-3-2.4-4.75-5.17-6.55-8.15-4.32-7.17-12.55-7.08-17.06,0a26.57,26.57,0,0,0-4.27,15.45c0.63,21.28,22.88,37.89,42.52,31.61,27.56-8.81,41.38-44.06,27.93-69.91-13.09-25.15-36-33.81-61.71-37.95-8.76-1.41-17.62-2.32-26.54-.73-7,1.24-14.28,1.85-16.93,10-2.56,7.86,2.12,13,9.3,18.25-12.08,1.84-22,.66-30.8-4.74a128.56,128.56,0,0,0-16.83-9.18c-3-1.27-6.91-4.67-9.07-.77-1.82,3.29-1.34,8,1.95,11.59,3,3.24,7,3.89,12.36,5.1-15.57,10.44-32,12.54-46.74,6.74-9.82-3.87-19-9-29.75-10-12.62-1.15-18.24,7.12-13,18.62,1.16,2.55,4.45,5.3,2.78,7.75-2.32,3.39-5.77-.23-8.73-0.55-6.69-.73-13.25-2.24-19.46,2.11-3.71,2.6-5.76,1.28-6.1-3.36-0.54-7.29-.93-14.52,2.87-22.95-7.55,3.07-9.56,8.29-10.51,13.62-3.92,22,2.15,40.56,17.88,56.81C296.33,397.77,317.69,405,340,411a42.73,42.73,0,0,1,10.43,4c-11.15,4-22.23,1.7-33.08-.44-15.71-3.1-30.51-8.91-44.8-16.26-12.78-6.58-26.32-9.78-40.81-5.8-6.49,1.78-12.56,3.9-15.25,10.69-4.78-2.79-1.47-7.64-3.84-10.73-6.18,7.45-5,20.06,3.3,29.63,8.58,9.86,19,17.61,30,24.57,1.41,0.89,4.12.73,3.54,5-11.11-1.48-22.34-2.72-32.55-7.5-9-4.22-17.3-10-26-14.87-9.18-5.16-14.63-14.34-22.69-20.66-10.89-8.53-22.19-16.13-37.21-15.09,2.26-8.25,4.64-15.63,12.86-18.89,1.46-.58,2.43-0.82.6-1.91-0.69-.42-1.88,0-2.84,0-0.46-.62-2-1.09-0.28-2l-1,2c-5.9-.82-9.66,2-12,7.13C126.78,381,124.87,381.9,124.49,384.2Z" transform="translate(-19.18 -15.32)" style="fill:url(#9688202b-e9ae-49dc-b0f5-6091e201012e)"/><path d="M435.61,162.3c5.66-5,11-10.68,21.94-9.82l-16,10Z" transform="translate(-19.18 -15.32)" style="fill:url(#390dedf9-11d2-4bff-ae3f-6c1a3b11d32a)"/><path d="M414.1,104.41c-2-2.33-4-4.7-6-7-1.57-1.77-3.09-4.52-1.8-5.94,1.87-2,4,.33,5.33,2,2.38,2.84,5.81,4.91,6.67,8.89C416.65,102.49,415,102.77,414.1,104.41Z" transform="translate(-19.18 -15.32)" style="fill:url(#562e1cf4-41d1-4bd2-89d1-8d5f6f8eb651)"/><path d="M238.56,270.42c4.69-.44,9.14.32,15,3.16-6.1.78-10.54,1.11-15,0Z" transform="translate(-19.18 -15.32)" style="fill:url(#57d67272-367a-4b83-8b03-53ce2f8e3f2d)"/><path d="M524.1,275.41c-2.54-.08-5-0.26-6.38-2.95C520.37,272.32,523.31,271.53,524.1,275.41Z" transform="translate(-19.18 -15.32)" style="fill:url(#af50416f-a7ef-47aa-98a2-f4a812be2a40)"/><path d="M124.49,384.2c0.38-2.3,2.29-3.25,3.92-4.45C128.9,382.82,127.5,384.22,124.49,384.2Z" transform="translate(-19.18 -15.32)" style="fill:url(#5b76f6ed-66b1-4b54-8903-3d96ce5d9e92)"/><path d="M225,272.16a2.66,2.66,0,0,1-3.72-.38C222.75,270.06,224,270.33,225,272.16Z" transform="translate(-19.18 -15.32)" style="fill:url(#6c2af4d3-e5f4-4190-9124-07d200a434d9)"/><path d="M140.42,372.63l1-2c-1.69.92-.18,1.39,0.28,2l-0.63.06Z" transform="translate(-19.18 -15.32)" style="fill:url(#ee38ac54-f3e5-4132-ba73-c0ba0b1fa052)"/><text transform="translate(31.14 302.02) scale(1.04 1)" style="font-size:224.74713134765625px;fill:#730cea;font-family:Readex Pro;font-weight:700">M</text><text transform="translate(216.39 302.02) scale(1.04 1)" style="font-size:224.74713134765625px;fill:#730cea;font-family:Readex Pro;font-weight:700">Y</text><text transform="translate(357.37 302.02) scale(1.04 1)" style="font-size:224.74713134765625px;fill:#730cea;font-family:Readex Pro;font-weight:700">L</text><text transform="translate(53.2 341.65) scale(0.98 1)" style="font-size:49.09189987182617px;fill:#730cea;font-family:Readex Pro;font-weight:700">C</text><text transform="translate(108.46 341.64) scale(0.98 1)" style="font-size:49.09189987182617px;fill:#730cea;font-family:Readex Pro;font-weight:700">O</text><text transform="translate(171.31 341.64) scale(0.98 1)" style="font-size:49.09189987182617px;fill:#730cea;font-family:Readex Pro;font-weight:700">L</text><text transform="translate(224.57 341.64) scale(0.98 1)" style="font-size:49.09189987182617px;fill:#730cea;font-family:Readex Pro;font-weight:700">O</text><text transform="translate(281 341.64) scale(0.98 1)" style="font-size:49.09189987182617px;fill:#730cea;font-family:Readex Pro;font-weight:700">M</text><text transform="translate(343.3 341.64) scale(0.98 1)" style="font-size:49.09189987182617px;fill:#730cea;font-family:Readex Pro;font-weight:700">B</text><text transform="translate(404.85 341.65) scale(0.98 1)" style="font-size:49.09189987182617px;fill:#730cea;font-family:Readex Pro;font-weight:700">I</text><text transform="translate(459.51 341.65) scale(0.98 1)" style="font-size:49.09189987182617px;fill:#730cea;font-family:Readex Pro;font-weight:700">A</text><path d="M77.19,311.79V158h35.47l58.89,90.76-25-.22L206.09,158H240.4V311.79H201.92V265.2q0-20.21,1-36.37t3.59-31.75L211,208.5l-44.75,65.7H150.45l-43.82-65.27,4.4-11.87a254.78,254.78,0,0,1,3.83,30.44q1,15.71,1,37.69v46.59H77.19Z" transform="translate(-19.18 -15.32)" style="fill:#dded0a"/><path d="M303.69,311.79V235.09l1.62,10.77L239.7,158h45l49.85,67.68L314.36,225l44.75-67h43.82l-62.83,90.32,3.48-15.16v78.67H303.69Z" transform="translate(-19.18 -15.32)" style="fill:#dded0a"/><path d="M401.76,311.79V158h39.64V278.6h72.33v33.18h-112Z" transform="translate(-19.18 -15.32)" style="fill:#dded0a"/><path d="M95.43,356.88a18.71,18.71,0,0,1-7-1.27,16,16,0,0,1-9.12-9.12,18.69,18.69,0,0,1-1.27-7,17.8,17.8,0,0,1,1.32-6.91,16.56,16.56,0,0,1,3.72-5.52,17,17,0,0,1,5.64-3.65,18.76,18.76,0,0,1,7-1.3,17.92,17.92,0,0,1,4.7.62,16.34,16.34,0,0,1,4.3,1.85,13.94,13.94,0,0,1,3.43,3l-5,5.71a11.26,11.26,0,0,0-3.34-2.54,9.16,9.16,0,0,0-4.1-.91,9.8,9.8,0,0,0-3.62.67,8.25,8.25,0,0,0-3,2,9.53,9.53,0,0,0-2,3.07,10.67,10.67,0,0,0-.72,4,11,11,0,0,0,.7,4,8.4,8.4,0,0,0,2,3.07,8.86,8.86,0,0,0,3.17,1.94,11.93,11.93,0,0,0,4.1.67,9.92,9.92,0,0,0,2.86-.41,10.09,10.09,0,0,0,2.57-1.18,10,10,0,0,0,2.06-1.73l4,6.34a11.12,11.12,0,0,1-3.14,2.35,19.33,19.33,0,0,1-4.42,1.66A20.44,20.44,0,0,1,95.43,356.88Z" transform="translate(-19.18 -15.32)" style="fill:#dded0a"/><path d="M150.82,356.88a18.39,18.39,0,0,1-7-1.3,16.26,16.26,0,0,1-9.14-9.14,19.34,19.34,0,0,1,0-13.92,16.72,16.72,0,0,1,3.62-5.54,16.3,16.3,0,0,1,5.52-3.65,18.41,18.41,0,0,1,7-1.3,18.1,18.1,0,0,1,6.91,1.3,16.38,16.38,0,0,1,5.5,3.65,16.75,16.75,0,0,1,3.62,5.54,18.39,18.39,0,0,1,1.3,7,18.08,18.08,0,0,1-1.3,6.91,16.8,16.8,0,0,1-3.62,5.52,16.35,16.35,0,0,1-5.5,3.65A18.08,18.08,0,0,1,150.82,356.88Zm0-7.73a8.65,8.65,0,0,0,6.46-2.74,9.12,9.12,0,0,0,1.9-3.07,10.76,10.76,0,0,0,.67-3.84,10.9,10.9,0,0,0-.67-3.89,9.41,9.41,0,0,0-1.9-3.1,8.58,8.58,0,0,0-2.86-2,8.81,8.81,0,0,0-3.6-.72,9,9,0,0,0-3.62.72,8.5,8.5,0,0,0-2.88,2,9.39,9.39,0,0,0-1.9,3.1,10.9,10.9,0,0,0-.67,3.89,10.31,10.31,0,0,0,1.18,5A8.68,8.68,0,0,0,150.82,349.15Z" transform="translate(-19.18 -15.32)" style="fill:#dded0a"/><path d="M198.47,356.4V322.8h8.21v26.35h15v7.25H198.47Z" transform="translate(-19.18 -15.32)" style="fill:#dded0a"/><path d="M267.14,356.88a18.39,18.39,0,0,1-7-1.3,16.26,16.26,0,0,1-9.14-9.14,19.34,19.34,0,0,1,0-13.92,16.72,16.72,0,0,1,3.62-5.54,16.3,16.3,0,0,1,5.52-3.65,18.41,18.41,0,0,1,7-1.3,18.1,18.1,0,0,1,6.91,1.3,16.38,16.38,0,0,1,5.5,3.65,16.75,16.75,0,0,1,3.62,5.54,18.39,18.39,0,0,1,1.3,7,18.07,18.07,0,0,1-1.3,6.91,16.8,16.8,0,0,1-3.62,5.52,16.35,16.35,0,0,1-5.5,3.65A18.08,18.08,0,0,1,267.14,356.88Zm0-7.73a8.65,8.65,0,0,0,6.46-2.74,9.12,9.12,0,0,0,1.9-3.07,10.75,10.75,0,0,0,.67-3.84,10.9,10.9,0,0,0-.67-3.89,9.41,9.41,0,0,0-1.9-3.1,8.58,8.58,0,0,0-2.86-2,8.81,8.81,0,0,0-3.6-.72,9,9,0,0,0-3.62.72,8.5,8.5,0,0,0-2.88,2,9.39,9.39,0,0,0-1.9,3.1,10.9,10.9,0,0,0-.67,3.89,10.31,10.31,0,0,0,1.18,5A8.68,8.68,0,0,0,267.14,349.15Z" transform="translate(-19.18 -15.32)" style="fill:#dded0a"/><path d="M308.35,356.4V322.8h7.34l12.19,19.82-5.18,0L335,322.8h7.1v33.6h-8V346.22q0-4.42.21-7.94t0.74-6.94l0.91,2.5-9.26,14.35h-3.26l-9.07-14.26,0.91-2.59a58.06,58.06,0,0,1,.79,6.65q0.22,3.43.22,8.23V356.4h-8Z" transform="translate(-19.18 -15.32)" style="fill:#dded0a"/><path d="M370.75,356.4V322.8h14.88a15.43,15.43,0,0,1,5.88,1,7.4,7.4,0,0,1,4.87,7.32,7.77,7.77,0,0,1-1.42,4.75,7.41,7.41,0,0,1-4.05,2.69l0-1a10.58,10.58,0,0,1,3.82,1.75,8.65,8.65,0,0,1,2.57,3,8.46,8.46,0,0,1,.91,4,10.53,10.53,0,0,1-.89,4.46,8.61,8.61,0,0,1-2.5,3.19,10.83,10.83,0,0,1-3.79,1.9,17.53,17.53,0,0,1-4.82.62H370.75Zm7.78-20.16h6a4.92,4.92,0,0,0,2.11-.41,3,3,0,0,0,1.32-1.15,3.28,3.28,0,0,0,.46-1.75,2.93,2.93,0,0,0-1.06-2.4,4.92,4.92,0,0,0-3.17-.86h-5.66v6.58Zm0,13.3h7.3a4.7,4.7,0,0,0,3.14-1,3.39,3.39,0,0,0,1.13-2.74,3.11,3.11,0,0,0-.55-1.87,3.31,3.31,0,0,0-1.56-1.15,6.75,6.75,0,0,0-2.4-.38h-7.06v7.1Z" transform="translate(-19.18 -15.32)" style="fill:#dded0a"/><path d="M431.79,356.4v-6.91h5.66V329.71h-5.66V322.8h19.54v6.91h-5.66v19.78h5.66v6.91H431.79Z" transform="translate(-19.18 -15.32)" style="fill:#dded0a"/><path d="M483,356.4l13.3-33.6h7l13.2,33.6h-8.26l-6.38-17q-0.34-1-.74-2.16t-0.79-2.4q-0.39-1.25-.72-2.4T499,330.24l1.39,0q-0.29,1.2-.62,2.35t-0.72,2.3q-0.39,1.15-.79,2.28l-0.84,2.33L491,356.4H483Zm6.34-6.43,2.59-6.24h15.36l2.59,6.24H489.32Z" transform="translate(-19.18 -15.32)" style="fill:#dded0a"/></svg>